<?xml version="1.0" encoding="utf-8"?>
<!-- Generator: Adobe Illustrator 22.1.0, SVG Export Plug-In . SVG Version: 6.00 Build 0)  -->
<svg version="1.1" id="Layer_1" xmlns="http://www.w3.org/2000/svg" xmlns:xlink="http://www.w3.org/1999/xlink" x="0px" y="0px"
	 viewBox="0 0 238 182" style="enable-background:new 0 0 238 182;" xml:space="preserve">
<style type="text/css">
	.st0{fill:#FFFFFF;}
	.st1{fill:none;}
</style>
<g>
	<g id="art">
		<g>
			<g>
				<path class="st0" d="M95.8,126.4c-1.6-1.6-3.5-2.9-5.7-3.8s-4.6-1.4-7.1-1.4s-4.9,0.5-7.1,1.4s-4.1,2.2-5.7,3.8
					c-1.6,1.6-2.9,3.5-3.8,5.7c-0.9,2.1-1.4,4.5-1.4,6.9c0,2.5,0.5,4.8,1.4,7s2.2,4.1,3.8,5.7c1.6,1.6,3.5,2.9,5.7,3.8
					c2.2,0.9,4.6,1.4,7.1,1.4s4.9-0.5,7.1-1.4s4.1-2.2,5.7-3.8s2.9-3.5,3.8-5.7s1.4-4.5,1.4-7s-0.5-4.8-1.4-6.9
					C98.7,129.9,97.4,128,95.8,126.4z M92.4,143.4c-0.5,1.3-1.1,2.4-2,3.4c-0.9,0.9-1.9,1.7-3.2,2.2c-1.2,0.5-2.7,0.8-4.2,0.8
					c-1.6,0-3-0.3-4.2-0.8s-2.3-1.3-3.2-2.2c-0.9-0.9-1.5-2-2-3.4c-0.5-1.3-0.7-2.8-0.7-4.4c0-1.6,0.2-3,0.7-4.4
					c0.5-1.3,1.1-2.4,2-3.4c0.9-0.9,1.9-1.6,3.2-2.2c1.2-0.5,2.7-0.8,4.2-0.8c1.6,0,3,0.3,4.2,0.8s2.3,1.3,3.2,2.2
					c0.9,0.9,1.5,2,2,3.4c0.5,1.3,0.7,2.8,0.7,4.4C93.1,140.6,92.8,142,92.4,143.4z"/>
				<path class="st0" d="M48.7,122.3c-5-2.1-10.7-1.2-14.7,2V110h-8v46h8v-18.1c0-3.4,0.9-9.2,7.5-9.2c6.1,0,7.5,5,7.5,9.2V156h8
					v-20.6C57,130,53.9,124.5,48.7,122.3z"/>
				<polyline class="st0" points="148,150 148,156 177,156 177,149 158.1,149 176,128.4 176,122 149,122 149,129 166.3,129 
					148,149.5 				"/>
				<polyline class="st0" points="183,150 183,156 212,156 212,149 193.1,149 211,128.4 211,122 184,122 184,129 201.3,129 
					183,149.5 				"/>
				<path class="st0" d="M132,122v18.6c0,1-0.1,2.1-0.4,3.1c-0.3,1-0.7,2-1.3,2.9l0,0c-0.6,0.9-1.3,1.6-2.3,2.1
					c-0.9,0.5-2.1,0.8-3.5,0.8s-2.6-0.3-3.5-0.8s-1.7-1.3-2.3-2.1c-0.6-0.9-1-1.9-1.3-2.9c-0.3-1.1-0.4-2.2-0.4-3.1V122h-8v19.3
					c0,7.2,3.1,12,9.4,14.4c1.9,0.7,3.9,1.1,6.1,1.1s4.2-0.4,6.1-1.1c7.7-3,9.4-9.5,9.4-14.4V122H132z"/>
			</g>
			<g>
				<polygon class="st0" points="115,78 133,78 133,104 159,104 159,59 107,44 107,26 89,26 89,104 115,104 				"/>
			</g>
		</g>
	</g>
	<g id="clear_space">
		<rect class="st1" width="238" height="182"/>
	</g>
</g>
</svg>
